# xmcd
#
# Track frame offsets:
#	150
#	17643
#	37175
#	54584
#	77368
#	93180
#	112790
#	135355
#	157714
#	179098
#
# Disc length: 2619 seconds
#
# Revision: 1
# Processed by: cddbd v1.5.2PL0 Copyright (c) Steve Scherf et al.
# Submitted via: audiograbber 1.83.01
#
DISCID=6b0a390a
DTITLE=Lee Rogers - Citizen:General
DYEAR=2012
DGENRE=Blues
TTITLE0=Wheels for Wings
TTITLE1=New Orleans
TTITLE2=Here Ends The Lesson
TTITLE3=This Life
TTITLE4=Citizen General
TTITLE5=Midnight
TTITLE6=Blood
TTITLE7=Won't Find Me
TTITLE8=Mothers Song
TTITLE9=Something
EXTD=
EXTT0=
EXTT1=
EXTT2=
EXTT3=
EXTT4=
EXTT5=
EXTT6=
EXTT7=
EXTT8=
EXTT9=
PLAYORDER=
